<svg width="728" height="638" viewBox="0 0 728 638" fill="none" xmlns="http://www.w3.org/2000/svg">
<g clip-path="url(#clip0)">
<path d="M44.026 -1.52588e-05C43.303 0.000778813 42.6098 0.288336 42.0986 0.799576C41.5874 1.31082 41.2998 2.00397 41.299 2.72697V95.739C41.2998 96.462 41.5874 97.1551 42.0986 97.6664C42.6098 98.1776 43.303 98.4652 44.026 98.466H361.182C361.905 98.4652 362.598 98.1776 363.109 97.6664C363.621 97.1551 363.908 96.462 363.909 95.739V2.72697C363.908 2.00397 363.621 1.31082 363.109 0.799576C362.598 0.288336 361.905 0.000778813 361.182 -1.52588e-05H44.026Z" fill="#E6E6E6"/>
<path d="M48.132 91.633H357.074V6.83298H48.132V91.633Z" fill="white"/>
<path d="M318.078 74.04C317.485 74.04 316.897 74.1568 316.349 74.3839C315.801 74.6109 315.303 74.9436 314.884 75.3631C314.464 75.7826 314.131 76.2806 313.904 76.8287C313.677 77.3768 313.561 77.9642 313.561 78.5575C313.561 79.1507 313.677 79.7382 313.904 80.2863C314.131 80.8343 314.464 81.3323 314.884 81.7518C315.303 82.1713 315.801 82.5041 316.349 82.7311C316.897 82.9581 317.485 83.075 318.078 83.075H336.147C336.74 83.075 337.328 82.9581 337.876 82.7311C338.424 82.5041 338.922 82.1713 339.341 81.7518C339.761 81.3323 340.094 80.8343 340.321 80.2863C340.548 79.7382 340.665 79.1507 340.665 78.5575C340.665 77.9642 340.548 77.3768 340.321 76.8287C340.094 76.2806 339.761 75.7826 339.341 75.3631C338.922 74.9436 338.424 74.6109 337.876 74.3839C337.328 74.1568 336.74 74.04 336.147 74.04H318.078Z" fill="#6C63FF"/>
<path d="M340.665 65.278H132.077V66.467H340.665V65.278Z" fill="#E6E6E6"/>
<path d="M88.476 75.544C103.007 75.544 114.787 63.7642 114.787 49.233C114.787 34.7018 103.007 22.922 88.476 22.922C73.9448 22.922 62.165 34.7018 62.165 49.233C62.165 63.7642 73.9448 75.544 88.476 75.544Z" fill="#E6E6E6"/>
<path d="M132.409 58.641L131.75 57.652L153.425 43.202L168.288 50.337L189.667 36.678L189.956 36.801L232.196 54.82L266.063 38.183L298.95 51.516L340.273 59.916L341.061 60.806L299.186 52.895L266.109 39.484L232.229 56.126L189.777 38.017L168.369 51.694L153.519 44.566L132.409 58.641Z" fill="#3F3D56"/>
<path d="M135.94 74.663C134.926 74.6793 133.96 75.0934 133.249 75.816C132.538 76.5386 132.139 77.5117 132.139 78.5255C132.139 79.5392 132.538 80.5124 133.249 81.235C133.96 81.9576 134.926 82.3717 135.94 82.388H176.35C177.374 82.4031 178.361 82.0113 179.096 81.2987C179.831 80.586 180.253 79.6109 180.269 78.5873C180.286 77.5638 179.895 76.5756 179.184 75.8398C178.472 75.104 177.497 74.6807 176.474 74.663C176.433 74.6623 176.391 74.6623 176.35 74.663H135.94Z" fill="#E6E6E6"/>
<path d="M99.0594 48.9062C98.7635 48.6103 98.3622 48.444 97.9437 48.444C97.5252 48.444 97.1238 48.6102 96.8279 48.9061L96.8278 48.9062L90.054 55.68V38.9765C90.0505 38.5603 89.8827 38.1623 89.5872 37.8692C89.2916 37.5761 88.8923 37.4116 88.476 37.4116C88.0598 37.4116 87.6604 37.5761 87.3648 37.8692C87.0693 38.1623 86.9015 38.5603 86.8981 38.9765V55.68L80.1242 48.9062C79.8288 48.6106 79.4282 48.4443 79.0104 48.4437C78.5925 48.4431 78.1914 48.6083 77.8952 48.903C77.599 49.1977 77.4317 49.5979 77.4302 50.0158C77.4286 50.4337 77.5929 50.8351 77.8869 51.132L77.8926 51.1377L87.3602 60.6053C87.6561 60.9012 88.0575 61.0674 88.476 61.0674C88.8945 61.0674 89.2959 60.9012 89.5918 60.6053L99.0594 51.1377C99.3553 50.8418 99.5215 50.4404 99.5215 50.022C99.5215 49.6035 99.3553 49.2021 99.0594 48.9062Z" fill="white"/>
<path d="M168.801 148.963C168.078 148.964 167.385 149.251 166.874 149.763C166.362 150.274 166.075 150.967 166.074 151.69V244.702C166.075 245.425 166.362 246.118 166.874 246.629C167.385 247.141 168.078 247.428 168.801 247.429H485.958C486.681 247.428 487.374 247.141 487.885 246.629C488.397 246.118 488.684 245.425 488.685 244.702V151.69C488.684 150.967 488.397 150.274 487.885 149.763C487.374 149.251 486.681 148.964 485.958 148.963H168.801Z" fill="#E6E6E6"/>
<path d="M172.908 240.596H481.851V155.796H172.908V240.596Z" fill="white"/>
<path d="M442.854 223.005C441.656 223.005 440.507 223.481 439.66 224.328C438.812 225.175 438.337 226.324 438.337 227.522C438.337 228.721 438.812 229.87 439.66 230.717C440.507 231.564 441.656 232.04 442.854 232.04H460.921C462.119 232.04 463.268 231.564 464.115 230.717C464.963 229.87 465.439 228.721 465.439 227.522C465.439 226.324 464.963 225.175 464.115 224.328C463.268 223.481 462.119 223.005 460.921 223.005H442.854Z" fill="#6C63FF"/>
<path d="M465.441 214.242H256.853V215.431H465.441V214.242Z" fill="#E6E6E6"/>
<path d="M213.251 224.508C227.782 224.508 239.562 212.728 239.562 198.197C239.562 183.666 227.782 171.886 213.251 171.886C198.72 171.886 186.94 183.666 186.94 198.197C186.94 212.728 198.72 224.508 213.251 224.508Z" fill="#6C63FF"/>
<path d="M257.183 207.605L256.523 206.616L278.198 192.166L293.062 199.301L314.441 185.642L314.73 185.765L356.969 203.784L390.837 187.147L423.724 200.479L465.047 163.879L465.835 164.769L423.96 201.855L390.883 188.445L357.004 205.087L314.552 186.978L293.144 200.655L278.298 193.53L257.183 207.605Z" fill="#3F3D56"/>
<path d="M260.716 223.626C259.692 223.609 258.703 224 257.966 224.713C257.23 225.425 256.807 226.401 256.791 227.426C256.774 228.45 257.165 229.439 257.877 230.175C258.59 230.911 259.566 231.334 260.59 231.351C260.632 231.352 260.674 231.352 260.716 231.351H301.126C302.14 231.335 303.106 230.921 303.817 230.198C304.528 229.475 304.927 228.502 304.927 227.488C304.927 226.475 304.528 225.502 303.817 224.779C303.106 224.056 302.14 223.642 301.126 223.626H260.716Z" fill="#E6E6E6"/>
<path d="M202.668 198.524C202.814 198.67 202.988 198.787 203.18 198.866C203.371 198.945 203.576 198.986 203.783 198.986C203.991 198.986 204.196 198.945 204.387 198.866C204.579 198.787 204.753 198.67 204.899 198.524L204.899 198.524L211.673 191.75V208.454C211.673 208.872 211.839 209.273 212.135 209.569C212.431 209.865 212.833 210.031 213.251 210.031C213.67 210.031 214.071 209.865 214.367 209.569C214.663 209.273 214.829 208.872 214.829 208.454V191.75L221.603 198.524C221.749 198.67 221.923 198.787 222.115 198.866C222.306 198.945 222.511 198.986 222.719 198.986C222.926 198.986 223.131 198.945 223.322 198.866C223.514 198.787 223.688 198.67 223.834 198.524C223.981 198.377 224.097 198.203 224.176 198.012C224.256 197.82 224.297 197.615 224.297 197.408C224.297 197.201 224.256 196.996 224.176 196.804C224.097 196.613 223.981 196.439 223.834 196.292L214.367 186.825C214.071 186.529 213.67 186.363 213.251 186.363C212.833 186.363 212.431 186.529 212.135 186.825L202.668 196.292C202.372 196.588 202.205 196.99 202.205 197.408C202.205 197.827 202.372 198.228 202.668 198.524Z" fill="white"/>
<path d="M2.72701 297.927C2.004 297.928 1.31085 298.215 0.799606 298.727C0.288367 299.238 0.000794072 299.931 0 300.654V393.666C0.000794072 394.389 0.288367 395.082 0.799606 395.593C1.31085 396.105 2.004 396.392 2.72701 396.393H319.883C320.606 396.392 321.299 396.105 321.81 395.593C322.322 395.082 322.609 394.389 322.61 393.666V300.654C322.609 299.931 322.322 299.238 321.81 298.727C321.299 298.215 320.606 297.928 319.883 297.927H2.72701Z" fill="#E6E6E6"/>
<path d="M6.834 389.56H315.777V304.76H6.834V389.56Z" fill="white"/>
<path d="M276.779 371.968C275.581 371.968 274.432 372.444 273.585 373.291C272.737 374.138 272.262 375.287 272.262 376.486C272.262 377.684 272.737 378.833 273.585 379.68C274.432 380.527 275.581 381.003 276.779 381.003H294.848C296.046 381.003 297.195 380.527 298.042 379.68C298.89 378.833 299.366 377.684 299.366 376.486C299.366 375.287 298.89 374.138 298.042 373.291C297.195 372.444 296.046 371.968 294.848 371.968H276.779Z" fill="#6C63FF"/>
<path d="M299.366 363.206H90.778V364.395H299.366V363.206Z" fill="#E6E6E6"/>
<path d="M47.177 373.471C61.7082 373.471 73.488 361.691 73.488 347.16C73.488 332.629 61.7082 320.849 47.177 320.849C32.6459 320.849 20.866 332.629 20.866 347.16C20.866 361.691 32.6459 373.471 47.177 373.471Z" fill="#6C63FF"/>
<path d="M91.108 356.569L90.449 355.58L112.124 341.129L126.987 348.264L148.367 334.601L190.895 352.742L224.762 336.105L257.645 349.442L298.968 332.842L299.756 333.732L257.886 350.821L224.809 337.411L190.93 354.053L148.478 335.944L127.071 349.622L112.221 342.494L91.108 356.569Z" fill="#3F3D56"/>
<path d="M94.641 372.589C93.6274 372.605 92.6608 373.019 91.9497 373.742C91.2387 374.465 90.8401 375.438 90.8401 376.452C90.8401 377.465 91.2387 378.438 91.9497 379.161C92.6608 379.884 93.6274 380.298 94.641 380.314H135.051C135.558 380.322 136.062 380.231 136.534 380.044C137.006 379.858 137.436 379.58 137.801 379.227C138.165 378.874 138.457 378.453 138.658 377.988C138.86 377.522 138.968 377.022 138.976 376.514C138.985 376.007 138.893 375.503 138.706 375.032C138.52 374.56 138.242 374.129 137.89 373.765C137.537 373.4 137.116 373.109 136.65 372.907C136.185 372.705 135.684 372.597 135.177 372.589C135.135 372.588 135.093 372.588 135.051 372.589H94.641Z" fill="#E6E6E6"/>
<path d="M36.5937 347.487C36.7402 347.633 36.9141 347.75 37.1055 347.829C37.297 347.908 37.5021 347.949 37.7094 347.949C37.9166 347.949 38.1218 347.908 38.3132 347.829C38.5046 347.75 38.6786 347.633 38.8251 347.487L38.8252 347.487L45.5991 340.713V357.417C45.6009 357.833 45.7673 358.232 46.062 358.526C46.3566 358.82 46.7556 358.986 47.172 358.987C47.5884 358.989 47.9885 358.825 48.285 358.533C48.5815 358.241 48.7504 357.843 48.755 357.427V340.713L55.5288 347.487C55.824 347.783 56.2249 347.951 56.6434 347.952C57.0619 347.953 57.4637 347.788 57.7604 347.493C58.0571 347.197 58.2243 346.796 58.2254 346.378C58.2265 345.959 58.0613 345.558 57.7661 345.261L57.7604 345.255L48.2928 335.788C47.9969 335.492 47.5955 335.326 47.177 335.326C46.7585 335.326 46.3572 335.492 46.0612 335.788L36.5937 345.255C36.4471 345.402 36.3309 345.576 36.2516 345.767C36.1723 345.959 36.1315 346.164 36.1315 346.371C36.1315 346.578 36.1723 346.783 36.2516 346.975C36.3309 347.166 36.4471 347.34 36.5937 347.487Z" fill="white"/>
<path d="M650.421 468.916L635.192 468.915L627.948 410.178L650.423 410.179L650.421 468.916Z" fill="#FFB7B7"/>
<path d="M654.304 483.678L605.202 483.676V483.055C605.202 477.986 607.216 473.126 610.8 469.541C614.384 465.957 619.245 463.944 624.314 463.943H624.315L654.305 463.945L654.304 483.678Z" fill="#2F2E41"/>
<path d="M594.525 468.916L579.297 468.915L572.052 410.178L594.528 410.179L594.525 468.916Z" fill="#FFB7B7"/>
<path d="M598.409 483.678L549.306 483.676V483.055C549.307 477.986 551.32 473.126 554.904 469.541C558.489 465.957 563.35 463.944 568.418 463.943H568.419L598.409 463.945L598.409 483.678Z" fill="#2F2E41"/>
<path d="M565.822 278.399C567.141 277.322 568.208 275.969 568.947 274.435C569.687 272.901 570.081 271.224 570.102 269.522C570.123 267.819 569.77 266.132 569.069 264.581C568.368 263.029 567.335 261.65 566.043 260.541L574.32 235.244L560.174 226.465L548.987 262.353C547.267 264.647 546.449 267.492 546.687 270.348C546.924 273.205 548.202 275.876 550.277 277.854C552.352 279.832 555.081 280.98 557.946 281.08C560.811 281.181 563.614 280.227 565.822 278.399Z" fill="#FFB7B7"/>
<path d="M580.913 261.7C580.913 261.7 566.699 338.641 566.876 353.576C567.09 371.598 575.109 448.839 575.109 448.839L595.526 443.735L599.385 354.209L615.533 297.071L621.743 370.356L627.978 447.446H651.663L656.969 254.043L579.636 251.491L580.913 261.7Z" fill="#2F2E41"/>
<path d="M651.734 106.659L610.9 107.935L585.379 266.166C585.379 266.166 639.611 291.049 662.58 273.184C685.549 255.319 651.734 106.659 651.734 106.659Z" fill="#CBCBCB"/>
<path d="M616.642 140.474L582.189 338.263L560.496 331.883L575.808 260.424L583.465 188.964L582.189 117.505L608.986 106.021L616.642 97.0884C616.642 97.0884 631.955 116.229 616.642 140.474Z" fill="#2F2E41"/>
<path d="M634.507 135.646L637.059 343.367L689.377 334.435L685.549 141.75L690.653 114.953L665.132 103.469L654.798 97.0884C654.798 97.0884 631.955 104.021 634.507 135.646Z" fill="#2F2E41"/>
<path d="M593.673 121.333L582.189 117.505L565.6 191.516L551.563 250.215L571.98 254.043L591.121 190.24L593.673 121.333Z" fill="#2F2E41"/>
<path d="M708.717 290.821C707.399 289.744 706.332 288.39 705.592 286.857C704.853 285.323 704.459 283.645 704.438 281.943C704.417 280.24 704.769 278.554 705.471 277.002C706.172 275.45 707.205 274.071 708.497 272.962L700.22 247.666L714.366 238.886L725.553 274.774C727.272 277.068 728.091 279.913 727.853 282.77C727.615 285.627 726.338 288.297 724.263 290.275C722.187 292.253 719.459 293.401 716.594 293.502C713.729 293.602 710.926 292.648 708.717 290.821Z" fill="#FFB7B7"/>
<path d="M679.625 118.849L691.109 115.021L707.698 189.032L722.977 262.636L699.997 266.017L682.177 187.756L679.625 118.849Z" fill="#2F2E41"/>
<path d="M647.723 86.6518C661.468 79.1384 666.519 61.9055 659.006 48.161C651.492 34.4166 634.259 29.3653 620.515 36.8787C606.771 44.3921 601.719 61.625 609.233 75.3695C616.746 89.1139 633.979 94.1652 647.723 86.6518Z" fill="#FFB7B7"/>
<path d="M684.181 485H495.819C495.602 485 495.393 484.895 495.24 484.707C495.086 484.52 495 484.265 495 484C495 483.735 495.086 483.48 495.24 483.293C495.393 483.105 495.602 483 495.819 483H684.181C684.398 483 684.607 483.105 684.76 483.293C684.914 483.48 685 483.735 685 484C685 484.265 684.914 484.52 684.76 484.707C684.607 484.895 684.398 485 684.181 485Z" fill="#CBCBCB"/>
<path d="M624.229 24.6521C651.343 16.8333 659.039 39.3057 659.039 39.3057C672.108 47.9763 663.926 58.847 663.926 58.847C667.224 59.5796 660.63 78.8775 658.431 78.3892C657.258 78.1285 654.242 81.7294 651.683 85.1444C650.806 85.1432 649.93 85.2274 649.069 85.3956L654.033 67.0308C654.033 67.0308 637.301 64.4673 632.171 56.4067C627.262 48.695 611.104 46.2603 606.506 51.4114C606.234 49.9303 605.677 48.5162 604.866 47.2475C604.238 46.2837 603.417 45.4607 602.455 44.8303C606.521 27.5529 624.229 24.6521 624.229 24.6521Z" fill="#2F2E41"/>
</g>
<defs>
<clipPath id="clip0">
<rect width="727.893" height="637.36" fill="white"/>
</clipPath>
</defs>
</svg>
