<svg width="1440" height="516" viewBox="0 0 1440 516" fill="none" xmlns="http://www.w3.org/2000/svg">
<g filter="url(#filter0_d)">
<path fill-rule="evenodd" clip-rule="evenodd" d="M1487.03 362.22C1515.41 331.44 1534 280.116 1534 222C1534 215.743 1534.02 209.337 1534.04 202.829C1534.34 111.41 1534.7 0 1478.5 0C1418.3 0 1316 127.835 1316 222C1316 273.375 1330.53 319.442 1353.5 350.701C1297.88 366.271 1225.67 377.105 1133.98 390.863C1094.95 396.718 1052.4 403.103 1006.09 410.608C877.142 431.505 770.527 421.838 671.353 394.409C681.919 376.923 688 356.421 688 334.5C688 270.435 636.065 218.5 572 218.5C516.304 218.5 469.775 257.753 458.57 310.104C427.516 295.063 396.095 279.154 363.81 262.806L363.776 262.789C359.066 260.404 354.337 258.01 349.588 255.608C189.021 174.379 15.4734 140.198 -40.9116 175.108C-42.4829 176.081 -42.0557 175.908 -41.4668 175.671C-41.2706 175.591 -41.0565 175.505 -40.8923 175.451L-40.8781 175.703L-25.4116 450.5L-25.4116 508H743.588H1460C1464.78 478.602 1471.16 445.471 1477.36 413.224C1480.73 395.716 1484.04 378.468 1487.03 362.22ZM458.57 310.104C529.424 344.423 598.374 374.225 671.353 394.409C651.038 428.026 614.144 450.5 572 450.5C507.935 450.5 456 398.565 456 334.5C456 326.131 456.886 317.97 458.57 310.104ZM1487.03 362.22C1500.96 286.406 1507.67 232.35 1478.59 275.108C1453.51 311.974 1413 334.047 1353.5 350.701C1372.64 376.737 1397.64 392.5 1425 392.5C1448.05 392.5 1469.42 381.312 1487.03 362.22Z" fill="#6C63FF"/>
</g>
<defs>
<filter id="filter0_d" x="-46" y="0" width="1584.09" height="516" filterUnits="userSpaceOnUse" color-interpolation-filters="sRGB">
<feFlood flood-opacity="0" result="BackgroundImageFix"/>
<feColorMatrix in="SourceAlpha" type="matrix" values="0 0 0 0 0 0 0 0 0 0 0 0 0 0 0 0 0 0 127 0"/>
<feOffset dy="4"/>
<feGaussianBlur stdDeviation="2"/>
<feColorMatrix type="matrix" values="0 0 0 0 0 0 0 0 0 0 0 0 0 0 0 0 0 0 0.25 0"/>
<feBlend mode="normal" in2="BackgroundImageFix" result="effect1_dropShadow"/>
<feBlend mode="normal" in="SourceGraphic" in2="effect1_dropShadow" result="shape"/>
</filter>
</defs>
</svg>
